<?xml version="1.0" encoding="utf-8"?>
<!-- Generator: Adobe Illustrator 21.0.0, SVG Export Plug-In . SVG Version: 6.00 Build 0)  -->
<svg version="1.1" id="Layer_1" xmlns="http://www.w3.org/2000/svg" xmlns:xlink="http://www.w3.org/1999/xlink"
     x="0px"
     y="0px"
     viewBox="50 50 600 380"
     style="background-color: #464C4B">
    <style type="text/css">
        .st0{fill:#464C4B;}
        .st1{fill:#D4FF8F;}
        .st2{fill:none;stroke:#464C4B;stroke-miterlimit:10;}
    </style>
    <g>
        <polygon class="st1" points="278.644,253.25 278.208,253.25 269.481,223.182 257.166,223.182 271.859,265.208 284.993,265.208
		299.685,223.182 287.345,223.182 	"/>
        <path class="st1" d="M334.257,225.357c-3.091-1.815-6.761-2.722-11.012-2.722c-4.25,0-7.92,0.907-11.012,2.722
		c-3.091,1.815-5.476,4.35-7.154,7.608c-1.679,3.254-2.518,7.055-2.518,11.395c0,4.303,0.839,8.084,2.518,11.341
		c1.678,3.255,4.063,5.79,7.154,7.605c3.092,1.815,6.762,2.721,11.012,2.721c4.251,0,7.921-0.906,11.012-2.721
		s5.476-4.35,7.155-7.605c1.679-3.257,2.518-7.038,2.518-11.341c0-4.34-0.839-8.141-2.518-11.395
		C339.733,229.707,337.348,227.172,334.257,225.357 M331.083,250.815c-0.666,1.915-1.645,3.427-2.941,4.53
		c-1.296,1.103-2.908,1.655-4.843,1.655c-1.952,0-3.588-0.552-4.91-1.655c-1.322-1.103-2.318-2.615-2.981-4.53
		c-0.666-1.915-1-4.094-1-6.539c0-2.444,0.334-4.623,1-6.538c0.663-1.915,1.659-3.427,2.981-4.54
		c1.322-1.113,2.958-1.672,4.91-1.672c1.935,0,3.547,0.559,4.843,1.672c1.296,1.113,2.275,2.625,2.941,4.54
		c0.666,1.915,0.999,4.094,0.999,6.538C332.082,246.721,331.749,248.9,331.083,250.815"/>
        <path class="st1" d="M373.368,222.579c-2.351,0-4.43,0.673-6.239,2.012c-1.805,1.342-3.091,3.314-3.857,5.925h-0.436v-7.334
		h-11.302v42.026h11.658v-23.776c0-1.716,0.387-3.228,1.163-4.544c0.772-1.312,1.832-2.338,3.174-3.077
		c1.339-0.736,2.868-1.106,4.58-1.106c0.803,0,1.689,0.063,2.655,0.19c0.966,0.13,1.725,0.273,2.271,0.439v-10.342
		c-0.509-0.13-1.102-0.23-1.778-0.303S373.951,222.579,373.368,222.579"/>
        <path class="st1" d="M405.158,256.248c-0.546,0.1-1.092,0.15-1.642,0.15c-0.783,0-1.472-0.117-2.065-0.357
		c-0.593-0.236-1.053-0.649-1.383-1.242c-0.326-0.593-0.493-1.429-0.493-2.505v-20.355h7.908v-8.757h-7.908v-10.069h-11.654v10.069
		h-5.746v8.757h5.746v21.887c-0.017,2.755,0.556,5.033,1.725,6.839c1.166,1.808,2.805,3.137,4.91,3.997
		c2.108,0.856,4.563,1.229,7.374,1.119c1.513-0.053,2.798-0.203,3.858-0.45c1.059-0.246,1.878-0.459,2.461-0.643l-1.832-8.673
		C406.124,256.068,405.704,256.148,405.158,256.248"/>
        <path class="st1" d="M447.364,227.942c-1.799-1.769-3.897-3.095-6.295-3.981c-2.399-0.882-4.984-1.326-7.755-1.326
		c-4.123,0-7.711,0.913-10.769,2.735c-3.054,1.826-5.419,4.37-7.098,7.635c-1.678,3.264-2.518,7.058-2.518,11.381
		c0,4.434,0.84,8.268,2.518,11.505c1.679,3.238,4.071,5.736,7.182,7.498c3.111,1.759,6.825,2.638,11.148,2.638
		c3.468,0,6.525-0.533,9.18-1.599c2.655-1.066,4.823-2.561,6.512-4.486c1.689-1.926,2.805-4.184,3.351-6.772l-10.779-0.713
		c-0.403,1.059-0.986,1.952-1.752,2.681c-0.766,0.73-1.685,1.279-2.761,1.643c-1.079,0.366-2.262,0.546-3.558,0.546
		c-1.951,0-3.64-0.41-5.062-1.229c-1.423-0.823-2.522-1.989-3.298-3.504c-0.773-1.513-1.162-3.311-1.162-5.39v-0.026h28.618v-3.201
		c0-3.574-0.499-6.699-1.505-9.37C450.558,231.932,449.159,229.714,447.364,227.942 M424.497,239.953
		c0.073-1.503,0.422-2.894,1.126-4.144c0.766-1.359,1.829-2.445,3.188-3.257c1.359-0.81,2.924-1.216,4.693-1.216
		c1.695,0,3.188,0.37,4.474,1.109c1.285,0.736,2.295,1.755,3.024,3.048c0.729,1.296,1.092,2.784,1.092,4.46H424.497z"/>
        <polygon class="st1" points="497.611,265.208 482.711,245.038 484.241,242.743 497.281,223.182 485.326,223.182 477.419,237.875
		469.704,223.182 457.663,223.182 469.704,244.197 457.227,265.208 469.265,265.208 476.94,253.695 485.709,265.208 	"/>
        <path class="st1" d="M211.468,270.136c-0.434,0.6-1.331,0.666-1.814,0.105c-0.864-1.005-0.956-1.962-0.841-2.654
		c0.375-2.247,3.205-3.676,4.721-4.289c-1.955-0.592-3.531-1.286-4.702-2.072c-0.743-0.499-1.342-1.216-1.579-2.079
		c-0.288-1.053-0.086-2.132,0.546-2.983c0.384-0.519,0.902-1.043,1.509-1.548c-2.258-0.759-4.327-1.855-5.496-3.226
		c-1.149-1.349-1.376-2.9-0.637-4.368c0.188-0.373,0.42-0.726,0.691-1.059c-1.813-0.57-3.454-1.281-4.768-2.133
		c-2.538-1.645-3.367-3.449-3.503-4.948c-5.882-1.569-9.253-3.842-11.179-6.017c-2.911-3.285-2.659-8.27,0.574-11.349
		c12.528-11.93,41.454-9.055,47.745-8.266c0.65,0.082,1.097,0.681,1.001,1.329l-0.001,0.01c-0.093,0.627-0.668,1.064-1.297,0.988
		c-5.996-0.721-34.212-3.434-45.834,7.633c-2.317,2.206-2.509,5.766-0.437,8.103c1.679,1.895,4.62,3.869,9.737,5.276
		c0.135-0.326,0.316-0.64,0.538-0.931c5.883-7.725,24.943-7.87,33.087-5.779c3.375,0.866,5.13,2.056,5.366,3.638
		c0.183,1.222-0.123,2.387-0.883,3.368c-2.186,2.82-7.52,3.45-8.121,3.512c-12.426,0.962-21.352,0.408-27.761-0.918
		c0.342,0.843,1.091,1.642,2.24,2.387c1.499,0.972,3.456,1.731,5.592,2.29c3.989-2.529,10.575-3.302,14.181-3.064
		c2.773,0.183,4.329,0.872,4.757,2.106l0.051,0.202c0.099,0.629,0.046,1.828-1.42,2.78c-2.799,1.818-10.49,1.966-17.048,0.484
		c-0.557,0.447-0.971,0.92-1.218,1.41c-0.176,0.35-0.587,1.168,0.978,2.415c1.423,1.134,3.546,1.929,5.596,2.413
		c2.445-1.357,5.237-2.174,6.83-1.566c0.979,0.374,1.505,1.239,1.406,2.313c-0.047,0.511-0.339,1.434-1.767,1.887
		c-1.328,0.421-3.651,0.346-6.099-0.148c-1.018,0.629-1.939,1.372-2.531,2.17c-0.175,0.235-0.246,0.529-0.199,0.826
		c0.049,0.314,0.219,0.59,0.479,0.776c0.845,0.604,2.514,1.493,5.67,2.29l0.153,0.039l0.138,0.078
		c0.609,0.346,1.224,1.022,1.129,1.884c-0.089,0.801-0.723,1.388-1.885,1.743c-1.78,0.542-3.886,1.846-4.041,2.778
		c-0.04,0.238,0.093,0.49,0.285,0.72C211.754,269.106,211.785,269.699,211.468,270.136 M209.754,244.922
		c5.276,0.782,10.651,0.498,12.502-0.704c0.118-0.077,0.248-0.175,0.323-0.276c-0.782-0.438-3.623-0.843-7.646-0.279
		C213.002,243.934,211.24,244.37,209.754,244.922 M198.244,237.158c6.146,1.314,14.919,1.877,27.436,0.909
		c1.327-0.141,5.148-0.892,6.484-2.617c0.374-0.484,0.507-0.988,0.417-1.587c-0.047-0.208-0.95-1.149-4.507-1.925
		c-9.042-1.972-25.135-0.952-29.77,5.137C198.283,237.103,198.263,237.13,198.244,237.158"/>
        <path class="st2" d="M211.468,270.136c-0.434,0.6-1.331,0.666-1.814,0.105c-0.864-1.005-0.956-1.962-0.841-2.654
		c0.375-2.247,3.205-3.676,4.721-4.289c-1.955-0.592-3.531-1.286-4.702-2.072c-0.743-0.499-1.342-1.216-1.579-2.079
		c-0.288-1.053-0.086-2.132,0.546-2.983c0.384-0.519,0.902-1.043,1.509-1.548c-2.258-0.759-4.327-1.855-5.496-3.226
		c-1.149-1.349-1.376-2.9-0.637-4.368c0.188-0.373,0.42-0.726,0.691-1.059c-1.813-0.57-3.454-1.281-4.768-2.133
		c-2.538-1.645-3.367-3.449-3.503-4.948c-5.882-1.569-9.253-3.842-11.179-6.017c-2.911-3.285-2.659-8.27,0.574-11.349
		c12.528-11.93,41.454-9.055,47.745-8.266c0.65,0.082,1.097,0.681,1.001,1.329l-0.001,0.01c-0.093,0.627-0.668,1.064-1.297,0.988
		c-5.996-0.721-34.212-3.434-45.834,7.633c-2.317,2.206-2.509,5.766-0.437,8.103c1.679,1.895,4.62,3.869,9.737,5.276
		c0.135-0.326,0.316-0.64,0.538-0.931c5.883-7.725,24.943-7.87,33.087-5.779c3.375,0.866,5.13,2.056,5.366,3.638
		c0.183,1.222-0.123,2.387-0.883,3.368c-2.186,2.82-7.52,3.45-8.121,3.512c-12.426,0.962-21.352,0.408-27.761-0.918
		c0.342,0.843,1.091,1.642,2.24,2.387c1.499,0.972,3.456,1.731,5.592,2.29c3.989-2.529,10.575-3.302,14.181-3.064
		c2.773,0.183,4.329,0.872,4.757,2.106l0.051,0.202c0.099,0.629,0.046,1.828-1.42,2.78c-2.799,1.818-10.49,1.966-17.048,0.484
		c-0.557,0.447-0.971,0.92-1.218,1.41c-0.176,0.35-0.587,1.168,0.978,2.415c1.423,1.134,3.546,1.929,5.596,2.413
		c2.445-1.357,5.237-2.174,6.83-1.566c0.979,0.374,1.505,1.239,1.406,2.313c-0.047,0.511-0.339,1.434-1.767,1.887
		c-1.328,0.421-3.651,0.346-6.099-0.148c-1.018,0.629-1.939,1.372-2.531,2.17c-0.175,0.235-0.246,0.529-0.199,0.826
		c0.049,0.314,0.219,0.59,0.479,0.776c0.845,0.604,2.514,1.493,5.67,2.29l0.153,0.039l0.138,0.078
		c0.609,0.346,1.224,1.022,1.129,1.884c-0.089,0.801-0.723,1.388-1.885,1.743c-1.78,0.542-3.886,1.846-4.041,2.778
		c-0.04,0.238,0.093,0.49,0.285,0.72C211.754,269.106,211.785,269.699,211.468,270.136z M209.754,244.922
		c5.276,0.782,10.651,0.498,12.502-0.704c0.118-0.077,0.248-0.175,0.323-0.276c-0.782-0.438-3.623-0.843-7.646-0.279
		C213.002,243.934,211.24,244.37,209.754,244.922z M222.74,244.06L222.74,244.06z M198.244,237.158
		c6.146,1.314,14.919,1.877,27.436,0.909c1.327-0.141,5.148-0.892,6.484-2.617c0.374-0.484,0.507-0.988,0.417-1.587
		c-0.047-0.208-0.95-1.149-4.507-1.925c-9.042-1.972-25.135-0.952-29.77,5.137C198.283,237.103,198.263,237.13,198.244,237.158z"/>
    </g>
</svg>
